<svg xmlns="http://www.w3.org/2000/svg" width="145" height="50" viewBox="0 0 145 50" fill="none">
<path d="M36.7484 1.01611L45.533 10.921C45.6331 11.0282 46.0583 11.5186 46.0583 11.5186C49.8451 16.2157 45.4467 27.1425 36.1027 36.8934C26.5601 46.8521 15.6388 52.1031 10.581 47.7826L0 39.3016C2.03359 40.5837 5.58972 39.9378 9.81845 37.7776C9.90786 37.7359 9.9932 37.6892 10.0821 37.6445C10.1329 37.616 10.1863 37.5875 10.2391 37.5616C14.6736 35.2204 19.7979 31.2714 24.6708 26.1856C29.5564 21.083 33.2949 15.772 35.4383 11.233C35.4687 11.1705 35.4951 11.1156 35.5216 11.0551C35.5617 10.9693 35.6018 10.8859 35.6384 10.8C37.5816 6.53795 38.0779 2.99343 36.7484 1.01611Z" fill="white"/>
<path d="M37.9713 40.4531C35.5303 43.0113 34.846 46.32 36.4392 47.8441C38.0338 49.3661 41.3039 48.5321 43.7515 45.9719C46.1931 43.4178 46.8804 40.105 45.2878 38.582C43.6901 37.057 40.4149 37.8975 37.9713 40.4531Z" fill="white"/>
<path d="M34.0847 1.03948C30.4291 -2.46185 19.5539 3.1728 9.57799 13.5736C8.84391 14.3415 8.13676 15.2054 7.45703 16.0505L16.4433 24.35C17.1617 23.4943 17.7464 22.8433 18.5521 22.0053C23.3681 16.9815 28.3954 13.0624 32.9874 11.4988C35.2577 6.71326 35.9781 2.85672 34.0847 1.03948Z" fill="white"/>
<path fill-rule="evenodd" clip-rule="evenodd" d="M65.372 34.3867C65.372 34.3867 67.4945 33.8572 67.464 31.675C67.4422 29.4934 65.2633 28.6793 63.3547 28.6793C61.4501 28.6793 54.6021 28.6539 54.6021 28.6539V40.2668H62.742C62.742 40.2668 67.4427 40.5753 67.4427 37.2116C67.4422 35.7298 66.7421 34.9431 65.372 34.3867ZM62.4057 38.0577H57.6755V35.5082C57.6755 35.5082 61.063 35.4787 62.4326 35.4787C63.8022 35.4787 64.0888 36.1526 64.0888 36.6541C64.0893 38.3326 62.4057 38.0577 62.4057 38.0577ZM62.3234 33.2956H57.7319V30.7532C57.7319 30.7532 61.284 30.6937 62.3463 30.6937C63.4111 30.6937 64.0893 31.3117 64.0893 31.9251C64.0893 33.6071 62.3234 33.2956 62.3234 33.2956Z" fill="white"/>
<path fill-rule="evenodd" clip-rule="evenodd" d="M99.625 28.5562L99.7124 40.2767H102.788V34.5862L108.193 40.1787H112.12L106.309 34.1827L112.018 28.5562H108.348L102.787 34.0211V28.5562H99.625Z" fill="white"/>
<path fill-rule="evenodd" clip-rule="evenodd" d="M76.9222 28.5668H73.6547L67.6255 40.2589H70.9566L72.2246 37.5346H78.4346L79.7026 40.1984H83.0982L76.9222 28.5668ZM73.2558 35.355L75.2844 31.0635L77.3159 35.355H73.2558Z" fill="white"/>
<path fill-rule="evenodd" clip-rule="evenodd" d="M84.103 28.6344H88.0361L93.8194 36.78V28.5754H96.7506V40.2665H93.3875L87.1892 31.7536V40.203H84.2189L84.103 28.6344Z" fill="white"/>
<path fill-rule="evenodd" clip-rule="evenodd" d="M70.3184 12.8002H73.3949V20.4955C73.3949 20.4955 73.3949 22.5379 76.5822 22.5379C77.6211 22.5379 79.8569 22.9012 79.8569 19.7653C79.8569 18.8155 79.8569 12.852 79.8569 12.852H82.9085V20.4066C82.9085 20.4066 83.5237 24.5777 76.3038 24.5777C75.1018 24.5777 70.3433 24.2977 70.3433 20.6622C70.3438 17.0216 70.3184 12.8002 70.3184 12.8002Z" fill="white"/>
<path fill-rule="evenodd" clip-rule="evenodd" d="M113.578 12.7708V14.9076H107.252C107.252 14.9076 103.786 14.4869 103.786 18.0893C103.786 18.6539 103.197 22.2579 106.806 22.2579H110.441V19.5814H106.499V17.4414H113.655V24.4161H107.337C107.337 24.4161 100.285 25.5173 100.285 18.4308C100.285 16.8514 101.211 12.8277 105.967 12.8277C110.476 12.8282 113.578 12.7708 113.578 12.7708Z" fill="white"/>
<path fill-rule="evenodd" clip-rule="evenodd" d="M95.3602 19.6001C97.9018 19.1209 98.2142 17.0898 98.2142 16.268C98.2142 12.4028 93.6009 12.8526 93.6009 12.8526H85.6616V24.5127H88.7077V19.9112L92.3146 19.9396L95.4795 24.4512H98.9417L95.3602 19.6001ZM92.9583 17.7646H88.732V14.8832C88.732 14.8832 91.4474 14.8832 93.0131 14.8832C94.5783 14.8832 95.1097 15.5601 95.1097 16.268C95.1097 18.0477 92.9583 17.7646 92.9583 17.7646Z" fill="white"/>
<path fill-rule="evenodd" clip-rule="evenodd" d="M65.3705 18.563C65.3705 18.563 67.5016 18.0299 67.4716 15.8509C67.4457 13.6662 65.2592 12.8531 63.3608 12.8531C61.4588 12.8531 54.6021 12.8287 54.6021 12.8287V24.4426H62.7456C62.7456 24.4426 67.4457 24.75 67.4457 21.3874C67.4452 19.9061 66.7447 19.121 65.3705 18.563ZM62.4082 22.231H57.6791V19.682C57.6791 19.682 61.065 19.652 62.4362 19.652C63.8094 19.652 64.0888 20.3264 64.0888 20.8285C64.0893 22.5064 62.4082 22.231 62.4082 22.231ZM62.3234 17.4699H57.7365V14.9275C57.7365 14.9275 61.2881 14.868 62.3539 14.868C63.4167 14.868 64.0893 15.4875 64.0893 16.1009C64.0893 17.7819 62.3234 17.4699 62.3234 17.4699Z" fill="white"/>
<path fill-rule="evenodd" clip-rule="evenodd" d="M124.387 12.7783H121.118L115.09 24.4674H118.424L119.695 21.7395H125.9L127.169 24.4064H130.558L124.387 12.7783ZM120.72 19.5625L122.753 15.2699L124.775 19.5625H120.72Z" fill="white"/>
<path fill-rule="evenodd" clip-rule="evenodd" d="M131.352 12.8465H135.29L141.073 20.9885V12.786H144.005V24.4751H140.648L134.444 15.9581V24.4136H131.473L131.352 12.8465Z" fill="white"/>
</svg>