<svg width="18" height="18" viewBox="0 0 18 18" fill="none" xmlns="http://www.w3.org/2000/svg">
<path d="M10.0799 8.56799L10.0439 8.60399C9.8999 8.71199 9.8279 8.85599 9.8279 8.99999C9.8279 9.14399 9.8999 9.28799 10.0439 9.39599L10.2959 9.57599C11.5199 10.512 12.8159 11.484 12.8159 13.788H5.1839C5.1839 11.448 6.4799 10.512 7.7039 9.57599L7.9559 9.39599C8.0639 9.28799 8.17191 9.14399 8.17191 8.99999C8.17191 8.85599 8.0999 8.71199 7.9559 8.60399L7.9199 8.56799C6.6239 7.59599 5.1839 6.47999 5.1839 3.99599H12.8159C12.8159 6.47999 11.3759 7.59599 10.0799 8.56799ZM14.0399 14.544V16.38C14.0399 16.524 13.9319 16.596 13.8239 16.596H4.2119C4.1039 16.596 3.9959 16.488 3.9959 16.38V14.544C3.9959 14.4 4.1039 14.328 4.2119 14.328H4.6799H13.3199H13.7879C13.9319 14.328 14.0399 14.436 14.0399 14.544ZM3.9599 3.27599V1.58399C3.9599 1.43999 4.0679 1.36799 4.1759 1.36799H13.7519C13.8959 1.36799 13.9679 1.47599 13.9679 1.58399V3.23999C13.9679 3.38399 13.8599 3.45599 13.7519 3.45599H13.3199H4.6799H4.2119C4.0679 3.49199 3.9599 3.38399 3.9599 3.27599ZM13.8239 4.49999C14.5079 4.49999 15.0479 3.92399 15.0479 3.27599V1.58399C15.0479 0.899985 14.5079 0.359985 13.8239 0.359985H4.2119C3.5279 0.359985 2.9519 0.899985 2.9519 1.58399V3.23999C2.9519 3.92399 3.4919 4.46399 4.1759 4.46399C4.3559 6.76799 5.6519 8.02799 6.8039 8.96399C5.6519 9.86399 4.3199 10.98 4.1759 13.284C3.4919 13.284 2.9519 13.86 2.9519 14.508V16.344C2.9519 17.028 3.4919 17.568 4.1759 17.568H13.7519C14.4359 17.568 14.9759 17.028 14.9759 16.344V14.508C14.9759 13.824 14.4359 13.284 13.7519 13.284C13.5719 10.98 12.2759 9.86399 11.1239 8.96399C12.3479 8.06399 13.6439 6.80399 13.8239 4.49999Z" fill="black"/>
<path d="M10.0799 8.56799L10.0439 8.60399C9.8999 8.71199 9.8279 8.85599 9.8279 8.99999C9.8279 9.14399 9.8999 9.28799 10.0439 9.39599L10.2959 9.57599C11.5199 10.512 12.8159 11.484 12.8159 13.788H5.1839C5.1839 11.448 6.4799 10.512 7.7039 9.57599L7.9559 9.39599C8.0639 9.28799 8.17191 9.14399 8.17191 8.99999C8.17191 8.85599 8.0999 8.71199 7.9559 8.60399L7.9199 8.56799C6.6239 7.59599 5.1839 6.47999 5.1839 3.99599H12.8159C12.8159 6.47999 11.3759 7.59599 10.0799 8.56799ZM14.0399 14.544V16.38C14.0399 16.524 13.9319 16.596 13.8239 16.596H4.2119C4.1039 16.596 3.9959 16.488 3.9959 16.38V14.544C3.9959 14.4 4.1039 14.328 4.2119 14.328H4.6799H13.3199H13.7879C13.9319 14.328 14.0399 14.436 14.0399 14.544ZM3.9599 3.27599V1.58399C3.9599 1.43999 4.0679 1.36799 4.1759 1.36799H13.7519C13.8959 1.36799 13.9679 1.47599 13.9679 1.58399V3.23999C13.9679 3.38399 13.8599 3.45599 13.7519 3.45599H13.3199H4.6799H4.2119C4.0679 3.49199 3.9599 3.38399 3.9599 3.27599ZM13.8239 4.49999C14.5079 4.49999 15.0479 3.92399 15.0479 3.27599V1.58399C15.0479 0.899985 14.5079 0.359985 13.8239 0.359985H4.2119C3.5279 0.359985 2.9519 0.899985 2.9519 1.58399V3.23999C2.9519 3.92399 3.4919 4.46399 4.1759 4.46399C4.3559 6.76799 5.6519 8.02799 6.8039 8.96399C5.6519 9.86399 4.3199 10.98 4.1759 13.284C3.4919 13.284 2.9519 13.86 2.9519 14.508V16.344C2.9519 17.028 3.4919 17.568 4.1759 17.568H13.7519C14.4359 17.568 14.9759 17.028 14.9759 16.344V14.508C14.9759 13.824 14.4359 13.284 13.7519 13.284C13.5719 10.98 12.2759 9.86399 11.1239 8.96399C12.3479 8.06399 13.6439 6.80399 13.8239 4.49999Z" fill="black"/>
</svg>
