<svg width="15" height="15" viewBox="0 0 15 15" fill="none" xmlns="http://www.w3.org/2000/svg">
<path d="M9.3602 4.56005L7.9202 11.37C7.8602 11.64 7.8302 11.82 7.8302 12C7.8302 12.57 8.1002 12.75 8.6402 12.75C9.0002 12.75 9.1502 12.69 9.2702 12.63C9.1802 14.04 8.1602 14.7 7.0802 14.7C5.8802 14.7 4.9502 13.98 4.9502 12.3C4.9502 11.91 5.0102 11.49 5.1002 11.01L6.4502 4.59005H9.3602V4.56005ZM8.4602 0.300049C9.3302 0.300049 10.0502 1.02005 10.0502 1.89005C10.0502 2.76005 9.3302 3.48005 8.4602 3.48005C7.5902 3.48005 6.8702 2.79005 6.8702 1.89005C6.8702 1.02005 7.5602 0.300049 8.4602 0.300049Z" fill="white"/>
</svg>
