<svg width="38" height="38" viewBox="0 0 38 38" fill="none" xmlns="http://www.w3.org/2000/svg">
<g clip-path="url(#clip0_408_956)">
<path d="M1.67177 11.704C1.13977 11.704 0.759766 11.324 0.759766 10.792V1.67201C0.759766 1.14001 1.13977 0.76001 1.67177 0.76001H10.7918C11.3238 0.76001 11.7038 1.14001 11.7038 1.67201C11.7038 2.20401 11.3238 2.58401 10.7918 2.58401H2.58377V10.792C2.58377 11.324 2.20377 11.704 1.67177 11.704Z" fill="white"/>
<path d="M36.3279 37.24H27.2079C26.6759 37.24 26.2959 36.86 26.2959 36.328C26.2959 35.796 26.6759 35.416 27.2079 35.416H35.4159V27.208C35.4159 26.676 35.7959 26.296 36.3279 26.296C36.8599 26.296 37.2399 26.676 37.2399 27.208V36.328C37.2399 36.86 36.8599 37.24 36.3279 37.24Z" fill="white"/>
<path d="M36.3279 11.704C35.7959 11.704 35.4159 11.324 35.4159 10.792V2.58401H27.2079C26.6759 2.58401 26.2959 2.20401 26.2959 1.67201C26.2959 1.14001 26.6759 0.76001 27.2079 0.76001H36.3279C36.8599 0.76001 37.2399 1.14001 37.2399 1.67201V10.792C37.2399 11.324 36.8599 11.704 36.3279 11.704Z" fill="white"/>
<path d="M10.7918 37.24H1.67177C1.13977 37.24 0.759766 36.86 0.759766 36.328V27.208C0.759766 26.676 1.13977 26.296 1.67177 26.296C2.20377 26.296 2.58377 26.676 2.58377 27.208V35.416H10.7918C11.3238 35.416 11.7038 35.796 11.7038 36.328C11.7038 36.86 11.3238 37.24 10.7918 37.24Z" fill="white"/>
<path d="M28.2719 29.184H18.9999C18.4679 29.184 18.0879 28.804 18.0879 28.272V19.912H9.72792C9.19592 19.912 8.81592 19.532 8.81592 19C8.81592 18.468 9.19592 18.088 9.72792 18.088H18.9999C19.5319 18.088 19.9119 18.468 19.9119 19V27.36H28.2719C28.8039 27.36 29.1839 27.74 29.1839 28.272C29.1839 28.804 28.7279 29.184 28.2719 29.184Z" fill="white"/>
<path d="M28.2721 24.32C27.7401 24.32 27.3601 23.94 27.3601 23.408V19.912H24.3201V23.408C24.3201 23.94 23.9401 24.32 23.4081 24.32C22.8761 24.32 22.4961 23.94 22.4961 23.408V19C22.4961 18.468 22.8761 18.088 23.4081 18.088H28.2721C28.8041 18.088 29.1841 18.468 29.1841 19V23.408C29.1841 23.864 28.7281 24.32 28.2721 24.32Z" fill="white"/>
<path d="M14.5919 15.504H9.72792C9.19592 15.504 8.81592 15.124 8.81592 14.592V9.72804C8.81592 9.19604 9.19592 8.81604 9.72792 8.81604H14.5919C15.1239 8.81604 15.5039 9.19604 15.5039 9.72804V14.592C15.5039 15.124 15.1239 15.504 14.5919 15.504ZM10.6399 13.68H13.6799V10.64H10.6399V13.68Z" fill="white"/>
<path d="M28.2721 15.504H23.4081C22.8761 15.504 22.4961 15.124 22.4961 14.592V9.72804C22.4961 9.19604 22.8761 8.81604 23.4081 8.81604H28.2721C28.8041 8.81604 29.1841 9.19604 29.1841 9.72804V14.592C29.1841 15.124 28.7281 15.504 28.2721 15.504ZM24.3201 13.68H27.3601V10.64H24.3201V13.68Z" fill="white"/>
<path d="M14.5919 29.1841H9.72792C9.19592 29.1841 8.81592 28.8041 8.81592 28.2721V23.4081C8.81592 22.8761 9.19592 22.4961 9.72792 22.4961H14.5919C15.1239 22.4961 15.5039 22.8761 15.5039 23.4081V28.2721C15.5039 28.7281 15.1239 29.1841 14.5919 29.1841ZM10.6399 27.3601H13.6799V24.3201H10.6399V27.3601Z" fill="white"/>
<path d="M18.9999 15.504C18.4679 15.504 18.0879 15.124 18.0879 14.592V9.72804C18.0879 9.19604 18.4679 8.81604 18.9999 8.81604C19.5319 8.81604 19.9119 9.19604 19.9119 9.72804V14.592C19.9119 15.124 19.5319 15.504 18.9999 15.504Z" fill="white"/>
</g>
<defs>
<clipPath id="clip0_408_956">
<rect width="38" height="38" fill="white"/>
</clipPath>
</defs>
</svg>
