<svg width="24" height="24" viewBox="0 0 24 24" fill="none" xmlns="http://www.w3.org/2000/svg">
<path d="M18.5002 4.10995L13.5102 2.23995C12.6802 1.92995 11.3202 1.92995 10.4902 2.23995L5.50016 4.10995C4.35016 4.53995 3.41016 5.89995 3.41016 7.11995V14.5499C3.41016 15.7299 4.19016 17.2799 5.14016 17.9899L9.44016 21.1999C10.8502 22.2599 13.1702 22.2599 14.5802 21.1999L18.8802 17.9899C19.8302 17.2799 20.6102 15.7299 20.6102 14.5499V7.11995C20.5902 5.89995 19.6502 4.53995 18.5002 4.10995ZM11.9302 7.02995C13.1102 7.02995 14.0702 7.98995 14.0702 9.16995C14.0702 10.3299 13.1602 11.2599 12.0102 11.2999H11.9902H11.9702C11.9502 11.2999 11.9302 11.2999 11.9102 11.2999C10.7102 11.2599 9.81016 10.3299 9.81016 9.16995C9.80016 7.98995 10.7602 7.02995 11.9302 7.02995ZM14.1902 16.3599C13.5802 16.7599 12.7902 16.9699 12.0002 16.9699C11.2102 16.9699 10.4102 16.7699 9.81016 16.3599C9.24016 15.9799 8.93016 15.4599 8.92016 14.8899C8.92016 14.3299 9.24016 13.7899 9.81016 13.4099C11.0202 12.6099 12.9902 12.6099 14.2002 13.4099C14.7702 13.7899 15.0902 14.3099 15.0902 14.8799C15.0802 15.4399 14.7602 15.9799 14.1902 16.3599Z" fill="#FFCC00"/>
</svg>
